<svg width="136.274414" height="28.898926" viewBox="0 0 136.274 28.8989" fill="none" xmlns="http://www.w3.org/2000/svg" xmlns:xlink="http://www.w3.org/1999/xlink">
	<desc>
			Created with Pixso.
	</desc>
	<defs/>
	<path id="Bean Scene" d="M7.94 19.67Q8.33 21.87 9.31 24.28L9.98 24.18Q9.65 22.19 9.48 20.4Q9.31 18.61 9.31 16.97Q9.31 16.28 9.33 15.64Q9.34 15 9.38 14.4Q10.88 14.4 12.27 14.09Q13.67 13.77 14.93 13.22Q15.85 13.58 16.66 14.1Q17.1 14.39 17.48 14.74Q17.8 15.03 18.07 15.36Q18.67 16.09 19.02 17.05Q19.36 18.01 19.36 19.24Q19.36 20.61 18.85 21.75Q18.63 22.27 18.33 22.74Q17.96 23.31 17.5 23.82Q17.48 23.83 17.47 23.84Q16.62 24.75 15.53 25.42Q14.83 25.86 14.08 26.2Q13.65 26.4 13.21 26.57Q11.99 27.03 10.74 27.26Q9.5 27.49 8.4 27.49Q6.98 27.49 5.89 27.24Q4.8 27 3.99 26.59Q3.19 26.18 2.65 25.63Q2.11 25.08 1.79 24.5Q1.46 23.92 1.33 23.32Q1.19 22.72 1.19 22.21Q1.19 21.78 1.3 21.2Q1.41 20.62 1.68 20.06Q1.7 20.01 1.72 19.97Q1.98 19.46 2.38 19.02Q2.47 18.92 2.57 18.83Q2.95 18.49 3.46 18.3L3.24 17.77Q2.49 18.02 1.89 18.46Q1.33 18.87 0.93 19.4Q0.9 19.43 0.88 19.47Q0.69 19.72 0.55 19.99Q0.36 20.34 0.23 20.72Q0.22 20.73 0.22 20.75Q0 21.41 0 22.14Q0 22.54 0.05 22.93Q0.17 23.68 0.5 24.39Q0.5 24.4 0.5 24.4Q1.01 25.48 2.04 26.31Q3.07 27.15 4.65 27.65Q6.23 28.16 8.4 28.16Q10.13 28.16 11.76 27.86Q13.39 27.56 14.83 27Q16.26 26.43 17.46 25.62Q18.66 24.81 19.52 23.8Q20.19 23.02 20.63 22.12Q20.75 21.86 20.86 21.6Q20.99 21.28 21.08 20.96Q21.34 20.05 21.34 19.07Q21.34 17.82 20.95 16.81Q20.68 16.13 20.28 15.55Q20.08 15.27 19.85 15.01Q19.15 14.21 18.18 13.62Q17.2 13.03 16.06 12.62Q17.08 12.04 17.92 11.34Q18.76 10.64 19.36 9.86Q19.96 9.07 20.28 8.25Q20.61 7.43 20.61 6.61Q20.61 5.38 20.18 4.4Q19.89 3.75 19.47 3.21Q19.26 2.94 19.02 2.7Q18.28 1.96 17.29 1.45Q16.3 0.93 15.2 0.61Q14.09 0.29 12.92 0.14Q11.75 0 10.64 0Q8.98 0 7.61 0.3Q6.23 0.61 5.12 1.06Q4.01 1.52 3.17 2.06Q2.34 2.61 1.76 3.08Q1.19 3.55 0.89 3.89Q0.59 4.23 0.56 4.28L1.07 4.71Q1.09 4.69 1.35 4.4Q1.62 4.1 2.15 3.64Q2.68 3.19 3.48 2.67Q4.28 2.15 5.37 1.7Q6.45 1.24 7.82 0.94Q9.19 0.64 10.85 0.64Q11.29 0.64 12.03 0.74Q12.76 0.83 13.61 1.07Q14.45 1.31 15.32 1.74Q15.8 1.97 16.21 2.27Q16.57 2.53 16.89 2.84Q17.58 3.52 18.02 4.46Q18.47 5.4 18.47 6.68Q18.47 7.6 18.17 8.41Q18.03 8.8 17.83 9.17Q17.62 9.56 17.35 9.92Q16.83 10.61 16.13 11.18Q16.09 11.21 16.05 11.25Q15.38 11.78 14.62 12.2Q13.44 11.91 12.18 11.78Q10.92 11.65 9.62 11.65L9.58 11.65Q9.75 10.1 9.99 8.87Q10.23 7.65 10.46 6.77Q10.69 5.89 10.87 5.35L11.12 4.61L10.49 4.4Q10.49 4.44 10.18 4.96Q9.87 5.48 9.45 6.43Q9.04 7.38 8.59 8.73Q8.15 10.08 7.87 11.75Q6.66 11.89 5.97 12.21Q5.39 12.48 5.29 12.87Q5.28 12.95 5.28 13.03Q5.28 13.14 5.3 13.24Q5.4 13.6 5.87 13.86Q6.45 14.2 7.58 14.33Q7.55 14.62 7.55 14.91L7.55 15.5Q7.55 17.46 7.94 19.67ZM73.24 9.06Q72.87 8.31 72.87 7.38Q72.87 6.2 73.28 5.2Q73.31 5.12 73.34 5.05Q73.66 4.34 74.13 3.76Q74.37 3.46 74.65 3.19Q74.76 3.09 74.87 2.99Q75.63 2.35 76.61 1.97Q77.74 1.53 79.05 1.53Q80.47 1.53 81.51 1.82Q82.56 2.11 83.24 2.64Q83.7 3 84 3.45Q84.15 3.68 84.26 3.93Q84.59 4.69 84.59 5.62Q84.59 6.06 84.53 6.49Q84.48 6.86 84.39 7.23Q84.2 8.03 83.96 8.66Q83.72 9.29 83.52 9.68Q83.33 10.08 83.33 10.1L84.09 10.52Q84.11 10.47 84.33 10.04Q84.56 9.62 84.81 8.93Q85.07 8.25 85.28 7.39Q85.32 7.23 85.35 7.07Q85.5 6.36 85.5 5.62Q85.5 4.51 85.09 3.58Q84.96 3.28 84.78 3Q84.42 2.44 83.88 2Q83.07 1.35 81.87 0.98Q80.68 0.61 79.09 0.61Q77.55 0.61 76.23 1.14Q76.2 1.15 76.16 1.17Q75.29 1.52 74.57 2.08Q74.17 2.38 73.81 2.74Q73.71 2.85 73.6 2.96Q72.75 3.91 72.24 5.16Q71.67 6.56 71.67 8.25Q71.67 9.77 72.25 10.87Q72.45 11.26 72.7 11.61Q73.16 12.27 73.79 12.81Q74.75 13.65 75.97 14.29Q77.19 14.93 78.46 15.51Q79.74 16.09 80.96 16.7Q82.18 17.31 83.14 18.07Q84.04 18.79 84.61 19.72Q84.64 19.77 84.68 19.82Q85.26 20.81 85.26 22.18Q85.26 22.87 85.07 23.51Q84.93 23.99 84.69 24.44Q84.68 24.46 84.67 24.47Q84.11 25.51 83.09 26.29Q82.06 27.08 80.59 27.54Q79.12 27.99 77.31 27.99Q76.61 27.99 75.79 27.88Q74.97 27.77 74.15 27.52Q73.71 27.39 73.3 27.22Q72.92 27.06 72.57 26.88Q71.81 26.48 71.22 25.94Q70.93 25.67 70.71 25.37Q70.46 25.04 70.28 24.66Q69.93 23.94 69.93 23.02Q69.93 22.09 70.21 21.45Q70.49 20.81 70.82 20.4Q71.16 19.99 71.45 19.79Q71.74 19.6 71.77 19.58L71.4 18.78Q71.35 18.79 70.97 19.03Q70.59 19.27 70.17 19.79Q69.76 20.3 69.41 21.09Q69.06 21.89 69.06 23.02Q69.06 23.7 69.24 24.33Q69.41 24.88 69.71 25.38Q69.76 25.47 69.82 25.55Q70.46 26.53 71.5 27.24Q72.63 28.02 74.11 28.46Q75.6 28.89 77.28 28.89Q79.17 28.89 80.92 28.41Q82.66 27.92 83.97 26.92Q84.37 26.62 84.71 26.28Q85.53 25.46 86.08 24.39Q86.86 22.86 86.86 20.78Q86.86 19.63 86.47 18.72Q86.29 18.29 86.04 17.9Q85.76 17.45 85.41 17.06Q84.74 16.32 83.85 15.71Q82.95 15.1 81.94 14.58Q80.93 14.06 79.86 13.59Q78.8 13.12 77.79 12.63Q76.78 12.15 75.88 11.62Q74.99 11.1 74.32 10.48Q73.65 9.86 73.26 9.1Q73.25 9.08 73.24 9.06ZM94.54 14.61Q94.14 15.31 94.14 16.23Q94.14 16.69 94.3 17.01Q94.45 17.32 94.67 17.52Q94.89 17.72 95.15 17.81Q95.41 17.91 95.61 17.91Q95.76 17.91 95.9 17.88Q96.14 17.84 96.36 17.72Q96.72 17.53 97.01 17.15Q97.29 16.78 97.45 16.24Q97.61 15.7 97.61 15Q97.61 14.37 97.42 13.85Q97.22 13.34 96.91 12.97Q97.01 12.86 97.12 12.78Q97.22 12.69 97.32 12.59L96.95 12.06Q96.81 12.2 96.68 12.31Q96.55 12.42 96.42 12.52Q96.18 12.36 95.92 12.26Q95.36 12.03 94.71 12.03Q93.89 12.03 92.98 12.56Q92.08 13.09 91.32 14.01Q90.57 14.93 90.08 16.2Q89.6 17.46 89.6 18.93Q89.6 20.38 90.02 21.46Q90.45 22.54 91.17 23.25Q91.52 23.59 91.93 23.85Q92.35 24.13 92.84 24.31Q92.96 24.35 93.08 24.39Q93.92 24.66 94.84 24.66Q95.89 24.66 96.72 24.31Q97.27 24.09 97.74 23.77Q98 23.6 98.24 23.39Q98.91 22.81 99.43 22.04Q99.95 21.27 100.39 20.41Q100.48 20.23 100.57 20.04Q100.59 21.2 100.93 22.08Q101.29 23.02 101.89 23.64Q102.24 23.99 102.64 24.24Q102.95 24.44 103.3 24.57Q103.62 24.69 103.96 24.77Q104.46 24.88 104.98 24.88Q105.91 24.88 106.69 24.53Q106.78 24.49 106.87 24.44Q107.21 24.26 107.53 24.04Q107.99 23.72 108.38 23.31Q109.05 22.62 109.58 21.74Q110.11 20.86 110.5 19.98Q110.89 19.1 111.19 18.3Q111.49 17.5 111.71 16.93L111.7 16.93Q111.9 16.35 112.12 15.84Q112.34 15.32 112.57 14.94Q112.81 14.56 113.08 14.32Q113.3 14.14 113.54 14.1Q113.6 14.09 113.66 14.09Q113.82 14.09 113.93 14.16Q114.08 14.25 114.16 14.46Q114.29 14.83 114.29 15.87Q114.29 16.64 114.22 17.63Q114.14 18.62 114.01 19.71Q113.88 20.79 113.71 21.91Q113.54 23.03 113.34 24.04L114.33 24.21Q114.38 24.09 114.52 23.64Q114.67 23.19 114.87 22.54Q115.08 21.89 115.36 21.08Q115.64 20.28 115.98 19.47Q116.31 18.66 116.7 17.89Q117.1 17.12 117.53 16.52Q117.97 15.92 118.44 15.56Q118.86 15.24 119.31 15.21Q119.35 15.21 119.4 15.21Q119.61 15.21 119.77 15.3Q119.88 15.36 119.97 15.47Q120.17 15.73 120.17 16.26Q120.17 16.61 120.06 17.13Q119.95 17.65 119.82 18.26Q119.69 18.88 119.58 19.55Q119.47 20.21 119.47 20.84Q119.47 21.41 119.61 21.9Q119.74 22.4 120.02 22.76Q120.14 22.92 120.29 23.06Q120.47 23.21 120.69 23.33Q121.09 23.54 121.64 23.54Q122.04 23.54 122.39 23.42Q122.62 23.35 122.83 23.22Q123.37 22.9 123.83 22.37Q124.29 21.84 124.67 21.14Q124.91 20.69 125.13 20.22Q125.18 21.27 125.49 22.08Q125.85 23.02 126.45 23.64Q126.79 23.99 127.2 24.24Q127.51 24.44 127.86 24.57Q128.18 24.69 128.52 24.77Q129.01 24.88 129.54 24.88Q130.47 24.88 131.25 24.53Q131.34 24.49 131.42 24.44Q131.77 24.26 132.09 24.04Q132.54 23.72 132.94 23.31Q133.6 22.62 134.13 21.74Q134.66 20.86 135.06 19.98Q135.45 19.1 135.75 18.3Q136.05 17.5 136.27 16.93L135.6 16.76Q135.38 17.36 135.1 18.14Q134.82 18.91 134.46 19.73Q134.1 20.54 133.65 21.32Q133.19 22.11 132.65 22.72Q132.1 23.32 131.45 23.7Q131.18 23.85 130.9 23.94Q130.49 24.07 130.03 24.07Q129.76 24.07 129.49 24.03Q129.16 23.97 128.84 23.84Q128.83 23.83 128.81 23.82Q128.26 23.58 127.81 23.1Q127.35 22.6 127.04 21.84Q126.73 21.07 126.63 20.01Q126.9 20.06 127.26 20.1Q127.61 20.14 128 20.14Q128.41 20.14 128.8 20.07Q129.2 19.99 129.58 19.84Q130.03 19.65 130.42 19.38Q130.69 19.2 130.93 18.97Q131 18.9 131.07 18.83Q131.56 18.32 131.88 17.64Q132.24 16.86 132.24 15.91Q132.24 15 131.82 14.36Q131.73 14.22 131.61 14.09Q131.41 13.87 131.17 13.72Q130.65 13.39 129.93 13.39Q129.11 13.39 128.25 13.83Q127.4 14.27 126.71 15.09Q126.02 15.92 125.57 17.13Q125.37 17.67 125.26 18.27Q125.2 18.44 125.14 18.61Q124.89 19.27 124.55 19.99Q124.22 20.71 123.82 21.31Q123.42 21.9 122.96 22.29Q122.58 22.61 122.16 22.66Q122.07 22.67 121.98 22.67Q121.56 22.67 121.29 22.48Q121.15 22.37 121.04 22.22Q120.74 21.77 120.74 20.91Q120.74 20.55 120.82 20.08Q120.91 19.61 121.01 19.08Q121.11 18.55 121.2 17.99Q121.28 17.43 121.28 16.86Q121.28 16.16 121.1 15.72Q120.92 15.27 120.66 15.02Q120.39 14.76 120.09 14.66Q119.8 14.56 119.57 14.56Q119.08 14.56 118.58 14.77Q118.09 14.98 117.58 15.45Q117.08 15.92 116.56 16.7Q116.04 17.48 115.51 18.61Q115.56 18.02 115.61 17.43Q115.66 16.83 115.66 16.33Q115.66 15.38 115.47 14.79Q115.28 14.21 115 13.91Q114.72 13.6 114.41 13.5Q114.1 13.39 113.87 13.39Q113.6 13.39 113.37 13.47Q113.16 13.54 112.97 13.68Q112.57 13.96 112.22 14.42Q111.88 14.88 111.58 15.49Q111.28 16.09 111.03 16.76L111.04 16.76Q110.82 17.36 110.54 18.14Q110.26 18.91 109.9 19.73Q109.54 20.54 109.09 21.32Q108.64 22.11 108.09 22.72Q107.54 23.32 106.89 23.7Q106.63 23.85 106.34 23.94Q105.93 24.07 105.47 24.07Q105.2 24.07 104.93 24.03Q104.6 23.97 104.29 23.84Q104.27 23.83 104.25 23.82Q103.7 23.58 103.25 23.1Q102.79 22.6 102.48 21.84Q102.18 21.07 102.07 20.01Q102.35 20.06 102.7 20.1Q103.05 20.14 103.44 20.14Q103.85 20.14 104.25 20.07Q104.64 19.99 105.02 19.84Q105.47 19.65 105.86 19.38Q106.13 19.2 106.37 18.97Q106.44 18.9 106.51 18.83Q107.01 18.32 107.32 17.64Q107.68 16.86 107.68 15.91Q107.68 15 107.26 14.36Q107.17 14.22 107.05 14.09Q106.85 13.87 106.61 13.72Q106.09 13.39 105.37 13.39Q104.55 13.39 103.7 13.83Q102.84 14.27 102.15 15.09Q101.46 15.92 101.01 17.13Q100.87 17.51 100.77 17.93Q100.43 18.75 100.08 19.5Q99.49 20.78 98.81 21.72Q98.12 22.67 97.3 23.21Q97.04 23.38 96.76 23.5Q96.15 23.75 95.44 23.75Q94.66 23.75 93.97 23.51Q93.88 23.48 93.8 23.45Q93.59 23.37 93.39 23.26Q92.87 22.97 92.45 22.51Q91.87 21.87 91.54 20.88Q91.2 19.89 91.2 18.5Q91.2 16.83 91.56 15.71Q91.92 14.59 92.46 13.92Q93 13.26 93.64 12.97Q94.28 12.69 94.84 12.69Q95.1 12.69 95.37 12.77Q95.51 12.81 95.63 12.86Q95.76 12.92 95.89 13Q95.12 13.7 94.63 14.45Q94.58 14.53 94.54 14.61ZM11.37 13.44Q10.32 13.67 9.41 13.7Q9.45 13.34 9.46 12.99Q9.48 12.64 9.51 12.3L9.62 12.3Q10.52 12.3 11.51 12.41Q12.49 12.52 13.46 12.76Q12.42 13.21 11.37 13.44ZM46.35 20.11Q46.92 18.83 47.62 16.93Q47.83 16.35 48.05 15.84Q48.27 15.32 48.5 14.94Q48.74 14.56 49.01 14.32Q49.23 14.14 49.47 14.1Q49.53 14.09 49.59 14.09Q49.74 14.09 49.86 14.16Q50.01 14.25 50.09 14.46Q50.22 14.83 50.22 15.87Q50.22 16.64 50.15 17.63Q50.07 18.62 49.94 19.71Q49.81 20.79 49.64 21.91Q49.47 23.03 49.27 24.04L50.26 24.21Q50.31 24.09 50.45 23.64Q50.6 23.19 50.8 22.54Q51.01 21.89 51.29 21.08Q51.57 20.28 51.91 19.47Q52.24 18.66 52.63 17.89Q53.02 17.12 53.46 16.52Q53.9 15.92 54.37 15.56Q54.79 15.24 55.23 15.21Q55.28 15.21 55.33 15.21Q55.54 15.21 55.7 15.3Q55.81 15.36 55.9 15.47Q56.1 15.73 56.1 16.26Q56.1 16.61 55.99 17.13Q55.88 17.65 55.75 18.26Q55.62 18.88 55.51 19.55Q55.4 20.21 55.4 20.84Q55.4 21.41 55.54 21.9Q55.67 22.4 55.95 22.76Q56.07 22.92 56.22 23.06Q56.4 23.21 56.62 23.33Q57.02 23.54 57.57 23.54Q57.97 23.54 58.32 23.42Q58.55 23.35 58.76 23.22Q59.3 22.9 59.76 22.37Q60.22 21.84 60.6 21.14Q60.97 20.45 61.3 19.72Q61.62 18.98 61.89 18.26Q62.15 17.53 62.39 16.93L61.72 16.76Q61.66 16.95 61.48 17.45Q61.31 17.96 61.07 18.61Q60.82 19.27 60.48 19.99Q60.15 20.71 59.75 21.31Q59.35 21.9 58.89 22.29Q58.51 22.61 58.09 22.66Q58 22.67 57.91 22.67Q57.49 22.67 57.22 22.48Q57.08 22.37 56.97 22.22Q56.66 21.77 56.66 20.91Q56.66 20.55 56.75 20.08Q56.84 19.61 56.94 19.08Q57.04 18.55 57.13 17.99Q57.21 17.43 57.21 16.86Q57.21 16.16 57.03 15.72Q56.85 15.27 56.59 15.02Q56.32 14.76 56.02 14.66Q55.73 14.56 55.5 14.56Q55.01 14.56 54.51 14.77Q54.02 14.98 53.51 15.45Q53.01 15.92 52.49 16.7Q51.97 17.48 51.44 18.61Q51.49 18.02 51.54 17.43Q51.59 16.83 51.59 16.33Q51.59 15.38 51.4 14.79Q51.21 14.21 50.93 13.91Q50.65 13.6 50.34 13.5Q50.03 13.39 49.79 13.39Q49.53 13.39 49.3 13.47Q49.09 13.54 48.9 13.68Q48.5 13.96 48.15 14.42Q47.81 14.88 47.51 15.49Q47.21 16.09 46.96 16.76Q46.27 18.55 45.76 19.73Q45.25 20.9 44.82 21.58Q44.39 22.26 44.03 22.54Q43.68 22.8 43.32 22.81Q43.3 22.81 43.28 22.81Q42.88 22.81 42.63 22.62Q42.47 22.5 42.37 22.31Q42.1 21.8 42.1 20.47Q42.1 20.04 42.16 19.59Q42.21 19.14 42.28 18.71Q42.36 18.28 42.45 17.92Q42.53 17.56 42.62 17.34L41.57 17Q41.3 17.77 41.17 18.51Q41.04 19.26 41.04 19.8Q40.81 20.5 40.48 21.16Q40.16 21.82 39.75 22.31Q39.34 22.81 38.85 23.11Q38.48 23.33 38.09 23.39Q37.96 23.41 37.83 23.41Q37.36 23.41 36.98 23.23Q36.5 23 36.15 22.49Q35.52 21.56 35.52 19.8Q35.52 18.02 35.99 16.74Q36.46 15.46 37.14 14.62Q37.81 13.79 38.55 13.39Q39.28 13 39.83 13Q40.35 13 40.73 13.23Q40.88 13.31 41.01 13.44Q41.07 13.49 41.12 13.55Q41.47 13.98 41.47 14.69Q41.47 15.41 41.16 15.91Q40.86 16.4 40.49 16.72Q40.12 17.03 39.79 17.17Q39.46 17.31 39.4 17.31L39.61 17.97Q39.87 17.87 40.3 17.63Q40.74 17.39 41.16 17Q41.57 16.61 41.87 16.03Q42.17 15.44 42.17 14.66Q42.17 13.99 41.96 13.55Q41.75 13.11 41.4 12.84Q41.4 12.84 41.4 12.84Q41.33 12.79 41.26 12.74Q40.96 12.55 40.6 12.45Q40.16 12.33 39.68 12.33Q39.13 12.33 38.48 12.57Q37.83 12.81 37.18 13.26Q36.53 13.7 35.93 14.35Q35.32 15 34.86 15.83Q34.4 16.66 34.11 17.65Q34.06 17.83 34.02 18.02Q34 18.08 33.98 18.14Q33.7 18.91 33.34 19.73Q32.98 20.54 32.53 21.32Q32.07 22.11 31.53 22.72Q30.98 23.32 30.33 23.7Q30.06 23.85 29.78 23.94Q29.37 24.07 28.91 24.07Q28.64 24.07 28.37 24.03Q28.04 23.97 27.72 23.84Q27.71 23.83 27.69 23.82Q27.14 23.58 26.69 23.1Q26.23 22.6 25.92 21.84Q25.61 21.07 25.51 20.01Q25.78 20.06 26.13 20.1Q26.48 20.14 26.88 20.14Q27.29 20.14 27.68 20.07Q28.08 19.99 28.46 19.84Q28.91 19.65 29.3 19.38Q29.57 19.2 29.81 18.97Q29.88 18.9 29.95 18.83Q30.44 18.32 30.76 17.64Q31.12 16.86 31.12 15.91Q31.12 15 30.7 14.36Q30.61 14.22 30.49 14.09Q30.29 13.87 30.05 13.72Q29.53 13.39 28.81 13.39Q27.99 13.39 27.13 13.83Q26.28 14.27 25.59 15.09Q24.89 15.92 24.45 17.13Q24.01 18.33 24.01 19.87Q24.01 21.14 24.37 22.08Q24.72 23.02 25.33 23.64Q25.67 23.99 26.08 24.24Q26.39 24.44 26.74 24.57Q27.06 24.69 27.39 24.77Q27.89 24.88 28.42 24.88Q29.35 24.88 30.13 24.53Q30.22 24.49 30.3 24.44Q30.65 24.26 30.97 24.04Q31.42 23.72 31.82 23.31Q32.48 22.62 33.01 21.74Q33.48 20.96 33.84 20.18Q33.89 21.04 34.13 21.7Q34.43 22.52 34.93 23.06Q35.32 23.48 35.8 23.73Q35.93 23.8 36.06 23.85Q36.32 23.95 36.58 24.02Q36.98 24.11 37.4 24.11Q38.43 24.11 39.19 23.66Q39.4 23.53 39.59 23.37Q40.46 22.62 41.01 21.44Q41.15 22.57 41.69 23.11Q41.97 23.38 42.29 23.51Q42.62 23.65 43.01 23.65Q43.33 23.65 43.63 23.56Q43.91 23.47 44.17 23.31Q44.7 22.96 45.24 22.18Q45.78 21.39 46.35 20.11ZM6.35 13.36Q5.98 13.19 5.98 13.07Q5.98 12.97 6.39 12.76Q6.8 12.56 7.77 12.42Q7.72 12.71 7.69 13.02L7.62 13.63Q6.73 13.53 6.35 13.36ZM96.77 14.11Q96.91 14.5 96.91 15Q96.91 15.29 96.85 15.67Q96.79 16.06 96.66 16.41Q96.52 16.75 96.29 16.98Q96.28 16.99 96.27 17Q96.18 17.08 96.08 17.14Q95.89 17.24 95.65 17.24Q95.53 17.24 95.43 17.2Q95.24 17.14 95.08 16.97L95.08 16.97Q94.84 16.71 94.84 16.23Q94.84 15.5 95.14 14.92Q95.21 14.78 95.3 14.65Q95.35 14.58 95.4 14.51Q95.82 13.92 96.38 13.43Q96.62 13.72 96.77 14.11ZM28.72 14.06Q28.78 14.06 28.84 14.06Q29.24 14.06 29.53 14.21Q29.73 14.31 29.88 14.45Q29.96 14.53 30.04 14.62Q30.24 14.88 30.35 15.22Q30.45 15.56 30.45 15.94Q30.45 16.62 30.21 17.21Q30.18 17.28 30.15 17.36Q29.88 17.94 29.47 18.37Q29.42 18.43 29.36 18.48Q29.03 18.8 28.65 19.02Q28.47 19.13 28.27 19.21Q27.71 19.46 27.14 19.48Q27.09 19.48 27.05 19.48Q26.47 19.48 26.07 19.42Q25.66 19.36 25.44 19.27Q25.44 18.18 25.74 17.22Q26.04 16.26 26.52 15.56Q27 14.86 27.6 14.46Q28.15 14.1 28.72 14.06ZM105.28 14.06Q105.34 14.06 105.41 14.06Q105.8 14.06 106.1 14.21Q106.29 14.31 106.44 14.45Q106.53 14.53 106.6 14.62Q106.81 14.88 106.91 15.22Q107.01 15.56 107.01 15.94Q107.01 16.62 106.78 17.21Q106.75 17.28 106.71 17.36Q106.45 17.94 106.03 18.37Q105.98 18.43 105.93 18.48Q105.6 18.8 105.21 19.02Q105.03 19.13 104.83 19.21Q104.27 19.46 103.7 19.48Q103.66 19.48 103.61 19.48Q103.03 19.48 102.63 19.42Q102.23 19.36 102 19.27Q102 18.18 102.3 17.22Q102.6 16.26 103.08 15.56Q103.56 14.86 104.17 14.46Q104.71 14.1 105.28 14.06ZM129.84 14.06Q129.9 14.06 129.96 14.06Q130.36 14.06 130.66 14.21Q130.85 14.31 131 14.45Q131.09 14.53 131.16 14.62Q131.37 14.88 131.47 15.22Q131.57 15.56 131.57 15.94Q131.57 16.62 131.34 17.21Q131.31 17.28 131.27 17.36Q131 17.94 130.59 18.37Q130.54 18.43 130.49 18.48Q130.16 18.8 129.77 19.02Q129.59 19.13 129.39 19.21Q128.83 19.46 128.26 19.48Q128.22 19.48 128.17 19.48Q127.59 19.48 127.19 19.42Q126.79 19.36 126.56 19.27Q126.56 18.18 126.86 17.22Q127.16 16.26 127.64 15.56Q128.12 14.86 128.72 14.46Q129.27 14.1 129.84 14.06Z" fill="#FFFFFF" fill-opacity="1.000000" fill-rule="evenodd"/>
</svg>
