<svg width="453.750000" height="215.595703" viewBox="0 0 453.75 215.596" fill="none" xmlns="http://www.w3.org/2000/svg" xmlns:xlink="http://www.w3.org/1999/xlink">
	<desc>
			Created with Pixso.
	</desc>
	<defs/>
	<path id="Coffee" d="M110.99 4.1Q112.58 3.47 114.18 2.9L113.54 0Q109.46 0.75 105.16 2.04Q100.86 3.33 96.57 5.37Q96.25 5.17 95.92 4.98Q92.12 2.78 87.81 1.45Q84.85 0.53 81.82 0.19Q80.07 0 78.31 0Q69.5 0 60.26 2.73Q51.02 5.47 42.32 10.9Q33.62 16.32 25.94 24.33Q18.26 32.33 12.46 42.86Q6.66 53.38 3.33 66.33Q0 79.27 0 94.63Q0 111.61 5.2 125.41Q10.41 139.21 19.71 148.99Q22.93 152.39 26.58 155.24Q33.44 160.61 41.78 164.08Q54.57 169.4 69.71 169.4Q77.07 169.4 84.17 168.04Q87.22 167.45 90.23 166.61Q96.76 164.78 102.79 161.9Q105.98 160.37 109.03 158.55Q111.19 157.26 113.26 155.83Q119.62 151.44 125.09 145.77Q132.34 138.25 137.5 128.69L134.17 126.75Q133.44 127.95 132.67 129.12Q128.55 135.4 123.21 140.88Q117.34 146.89 110.46 151.35Q109.91 151.7 109.35 152.05Q105.33 154.55 101.05 156.46Q97.33 158.13 93.4 159.36Q88.92 160.75 84.33 161.41Q80.28 161.99 76.16 161.99Q61.01 161.99 49.25 156.29Q41.37 152.48 35.16 146.84Q32.09 144.06 29.43 140.83Q29.2 140.55 28.97 140.26Q21.25 130.68 17.18 118.16Q12.99 105.27 12.99 90.87Q12.99 76.69 16 64.77Q19.01 52.85 24.11 43.18Q29.21 33.51 35.82 26.26Q42.43 19.01 49.68 14.07Q56.93 9.13 64.34 6.66Q71.75 4.18 78.31 4.18Q80.96 4.18 83.52 4.64Q84.6 4.83 85.66 5.1Q89.26 6.01 92.38 7.51Q86.47 10.95 81.1 15.52Q75.73 20.08 71.7 25.62Q70.22 27.64 68.97 29.8Q66.8 33.53 65.31 37.65Q64.9 38.77 64.56 39.91Q62.94 45.39 62.94 51.34Q62.94 57.79 65.04 62.46Q67.13 67.13 70.52 70.25Q72.42 72 74.61 73.24Q76.32 74.21 78.2 74.87Q81.6 76.06 85.07 76.31Q85.98 76.37 86.9 76.37Q90.73 76.37 94.18 75.24Q96.16 74.6 98.02 73.58Q98.69 73.21 99.35 72.8Q103.62 70.13 106.88 65.84Q110.64 60.9 112.73 54.03Q114.83 47.15 114.83 38.99Q114.83 29 111.12 21.37Q107.79 14.51 102.59 9.65Q102.01 9.11 101.4 8.59Q104.41 6.98 107.63 5.53Q109.3 4.78 110.99 4.1ZM262.91 39.85Q265.86 30.61 265.86 22.45Q265.86 16 262.7 12.18Q262.54 11.99 262.37 11.81Q261.28 10.6 259.95 9.77Q257.03 7.94 252.97 7.94Q249.54 7.94 246.9 9.34Q246.05 9.8 245.25 10.34Q243.61 11.47 242.23 12.99Q240.19 15.25 238.74 18.04Q237.29 20.83 236.43 23.52Q235.14 27.28 233.32 35.87Q231.49 44.47 229.5 56.02Q227.52 67.56 225.53 81.15Q223.78 93.1 222.32 105.25Q221.37 107.29 220.32 109.19Q218.38 112.68 215.86 115.42Q215.22 116.12 214.53 116.76Q212.5 118.65 210.06 120.09Q206.78 122.03 202.59 122.78Q203.45 119.34 203.77 115.74Q204.1 112.14 204.1 108.49Q204.1 98.72 202.22 92.32Q200.34 85.93 197.33 82.17Q194.32 78.41 190.56 76.86Q187.44 75.56 184.25 75.34Q183.59 75.3 182.93 75.3Q178.21 75.3 174.77 77.23Q172.13 78.71 170.26 80.86Q169.69 81.51 169.18 82.23Q167.04 85.29 166.02 89.16Q165 93.02 165 96.78Q165 103.55 167.36 109.19Q169.38 114 172.69 117.64Q173.25 118.27 173.86 118.86Q174.56 119.54 175.31 120.18Q178.95 123.27 183.63 125.14Q189.27 127.4 195.93 127.4L196.79 127.4Q193.68 135.78 188.14 140.18Q183.43 143.93 178.37 144.49Q177.49 144.59 176.6 144.59Q172.52 144.59 168.22 143.03Q167.77 142.86 167.33 142.68Q163.56 141.09 160.48 137.87Q157.05 134.27 154.84 128.36Q152.64 122.46 152.64 113.76Q152.64 109.35 153.72 104.89Q154.79 100.43 156.62 96.41Q158.44 92.38 160.7 89.05Q162.95 85.72 165.43 83.46L163.81 80.78Q159.95 83.89 156.62 88.13Q155.8 89.17 155.04 90.25Q152.69 93.57 150.87 97.27Q148.45 102.15 147.11 107.63Q146.66 109.49 146.35 111.37Q145.77 115.04 145.77 118.8Q145.77 127.51 148.18 133.79Q150.6 140.07 154.52 144.21Q158.12 148 162.53 149.99Q162.93 150.17 163.33 150.33Q168.22 152.32 173.05 152.32Q178.85 152.32 183.53 150.33Q186.83 148.93 189.57 146.79Q190.71 145.91 191.74 144.91Q195.29 141.47 197.76 136.85Q200.23 132.23 201.73 126.97Q203.59 126.72 205.38 126.25Q207.44 125.7 209.41 124.87Q213.12 123.32 216.5 120.42Q218.94 118.32 221.16 115.51Q220.08 125.77 219.35 135.67Q218.38 148.88 218.38 159.52Q218.38 164.14 218.6 170.1Q218.81 176.06 219.62 182.29Q220.43 188.52 222.04 194.48Q223.65 200.44 226.44 205.17Q229.13 209.72 233.06 212.53Q233.21 212.64 233.37 212.74Q233.65 212.94 233.95 213.12Q237.91 215.59 243.41 215.59Q246.38 215.59 248.83 214.47Q250.02 213.93 251.09 213.12Q254.37 210.65 256.57 206.3Q258.77 201.95 259.9 196.04Q261.03 190.13 261.03 183.26Q261.03 178.1 260.49 172.62Q259.96 167.14 258.94 161.67Q257.92 156.19 256.52 150.98Q255.12 145.77 253.4 141.25Q253.86 141.08 254.31 140.89Q258.92 138.92 262.59 134.76Q266.62 130.19 269.73 124.66Q270.85 122.66 271.88 120.63Q271.13 128.25 270.59 135.67Q269.62 148.88 269.62 159.52Q269.62 164.14 269.84 170.1Q270.05 176.06 270.86 182.29Q271.67 188.52 273.28 194.48Q274.89 200.44 277.68 205.17Q280.37 209.72 284.3 212.53Q284.45 212.64 284.61 212.74Q284.89 212.94 285.19 213.12Q289.15 215.59 294.65 215.59Q297.62 215.59 300.07 214.47Q301.26 213.93 302.33 213.12Q305.61 210.65 307.81 206.3Q310.01 201.95 311.14 196.04Q312.27 190.13 312.27 183.26Q312.27 178.1 311.73 172.62Q311.2 167.14 310.18 161.67Q309.16 156.19 307.76 150.98Q306.36 145.77 304.64 141.25Q305.1 141.08 305.55 140.89Q310.16 138.92 313.83 134.76Q317.86 130.19 320.97 124.66Q321.58 123.57 322.17 122.47Q322.32 129.67 324.41 135.13Q326.67 141.04 330.48 144.96Q332.62 147.17 335.16 148.74Q337.13 149.97 339.34 150.82Q341.36 151.59 343.45 152.05Q346.58 152.75 349.87 152.75Q355.74 152.75 360.62 150.55Q361.19 150.29 361.74 150.01Q363.92 148.89 365.9 147.5Q368.77 145.49 371.25 142.92Q375.43 138.57 378.77 133.04Q381.57 128.38 383.76 123.72Q384.06 130.15 385.96 135.13Q388.22 141.04 392.03 144.96Q394.18 147.17 396.71 148.74Q398.69 149.97 400.89 150.82Q402.91 151.59 405 152.05Q408.13 152.75 411.42 152.75Q417.3 152.75 422.18 150.55Q422.74 150.29 423.29 150.01Q425.47 148.89 427.46 147.5Q430.32 145.49 432.8 142.92Q436.99 138.57 440.32 133.04Q443.65 127.51 446.12 121.97Q448.59 116.44 450.47 111.39Q452.35 106.34 453.75 102.8L449.56 101.72Q448.16 105.48 446.39 110.37Q444.61 115.26 442.36 120.36Q440.1 125.46 437.26 130.41Q434.41 135.35 430.97 139.16Q427.53 142.97 423.45 145.34Q421.78 146.3 419.99 146.88Q417.39 147.7 414.54 147.7Q412.82 147.7 411.15 147.4Q409.07 147.03 407.07 146.2Q406.97 146.15 406.86 146.11Q403.39 144.6 400.57 141.58Q397.67 138.46 395.74 133.63Q393.8 128.79 393.16 122.13Q394.88 122.46 397.08 122.72Q399.28 122.99 401.75 122.99Q404.33 122.99 406.81 122.51Q409.3 122.03 411.69 121.06Q414.52 119.91 416.98 118.22Q418.67 117.06 420.18 115.64Q420.63 115.21 421.07 114.75Q424.16 111.54 426.14 107.26Q428.39 102.37 428.39 96.35Q428.39 90.64 425.77 86.66Q425.19 85.77 424.47 84.97Q423.21 83.55 421.67 82.59Q418.41 80.56 413.89 80.56Q408.74 80.56 403.36 83.3Q397.99 86.04 393.64 91.25Q389.29 96.46 386.5 104.03Q385.28 107.33 384.6 111.02Q382.91 115.6 380.81 120.36Q378.55 125.46 375.7 130.41Q372.86 135.35 369.42 139.16Q365.98 142.97 361.9 145.34Q360.23 146.3 358.43 146.88Q355.84 147.7 352.98 147.7Q351.26 147.7 349.6 147.4Q347.52 147.03 345.52 146.2Q345.41 146.15 345.31 146.11Q341.84 144.6 339.02 141.58Q336.12 138.46 334.18 133.63Q332.25 128.79 331.61 122.13Q333.33 122.46 335.53 122.72Q337.73 122.99 340.2 122.99Q342.78 122.99 345.26 122.51Q347.75 122.03 350.14 121.06Q352.97 119.91 355.43 118.22Q357.12 117.06 358.62 115.64Q359.08 115.21 359.51 114.75Q362.61 111.54 364.59 107.26Q366.84 102.37 366.84 96.35Q366.84 90.64 364.22 86.66Q363.64 85.77 362.92 84.97Q361.66 83.55 360.11 82.59Q356.86 80.56 352.34 80.56Q347.18 80.56 341.81 83.3Q336.44 86.04 332.09 91.25Q327.74 96.46 324.95 104.03Q324.09 106.36 323.5 108.88Q323.03 110.05 322.53 111.28Q320.33 116.76 317.43 122.08Q314.53 127.4 310.93 131.69Q307.33 135.99 303.03 137.71Q300.56 132.45 297.55 129.28Q294.86 126.44 291.92 126.14Q291.57 126.11 291.22 126.11Q289.9 126.11 288.8 126.6Q287.66 127.11 286.76 128.15Q286.12 128.88 285.72 129.72Q284.99 131.23 284.99 133.09Q284.99 134.16 285.28 135.14Q285.55 136.03 286.06 136.85Q287.13 138.57 288.96 139.86Q290.79 141.15 293.1 141.85Q295.41 142.54 297.98 142.54L298.84 142.54Q301.21 150.39 302.82 161.29Q304.43 172.19 304.43 184.22Q304.43 186.05 304.38 188.74Q304.32 191.42 304.05 194.43Q303.78 197.44 303.25 200.44Q302.71 203.45 301.64 205.82Q300.56 208.18 298.95 209.68Q298.35 210.24 297.65 210.59Q296.46 211.19 294.98 211.19Q293.12 211.19 291.48 210.58Q289.43 209.83 287.72 208.13Q284.66 205.06 282.57 199.32Q280.47 193.57 279.45 185.35Q278.43 177.13 278.43 166.82Q278.43 161.77 278.86 154.36Q279.29 146.95 279.99 138.09Q280.69 129.22 281.71 119.34Q282.73 109.46 283.91 99.47Q289.82 89.37 295.78 79.11Q301.74 68.85 306.47 58.97Q311.2 49.09 314.15 39.85Q317.1 30.61 317.1 22.45Q317.1 16 313.94 12.18Q313.78 11.99 313.61 11.81Q312.52 10.6 311.19 9.77Q308.27 7.94 304.21 7.94Q300.78 7.94 298.14 9.34Q297.29 9.8 296.49 10.34Q294.85 11.47 293.47 12.99Q291.43 15.25 289.98 18.04Q288.53 20.83 287.67 23.52Q286.38 27.28 284.56 35.87Q282.73 44.47 280.74 56.02Q278.76 67.56 276.77 81.15Q274.98 93.34 273.5 105.75Q272.48 108.32 271.29 111.28Q269.09 116.76 266.19 122.08Q263.29 127.4 259.69 131.69Q256.09 135.99 251.79 137.71Q249.32 132.45 246.31 129.28Q243.62 126.44 240.68 126.14Q240.33 126.11 239.98 126.11Q238.66 126.11 237.56 126.6Q236.42 127.11 235.52 128.15Q234.88 128.88 234.48 129.72Q233.75 131.23 233.75 133.09Q233.75 134.16 234.04 135.14Q234.31 136.03 234.82 136.85Q235.89 138.57 237.72 139.86Q239.55 141.15 241.86 141.85Q244.17 142.54 246.74 142.54L247.6 142.54Q249.97 150.39 251.58 161.29Q253.19 172.19 253.19 184.22Q253.19 186.05 253.14 188.74Q253.08 191.42 252.81 194.43Q252.54 197.44 252.01 200.44Q251.47 203.45 250.4 205.82Q249.32 208.18 247.71 209.68Q247.11 210.24 246.41 210.59Q245.22 211.19 243.74 211.19Q241.88 211.19 240.24 210.58Q238.19 209.83 236.48 208.13Q233.42 205.06 231.33 199.32Q229.23 193.57 228.21 185.35Q227.19 177.13 227.19 166.82Q227.19 161.77 227.62 154.36Q228.05 146.95 228.75 138.09Q229.45 129.22 230.47 119.34Q231.49 109.46 232.67 99.47Q238.58 89.37 244.54 79.11Q250.5 68.85 255.23 58.97Q259.96 49.09 262.91 39.85ZM107.28 23.1Q110.64 30.14 110.64 38.77Q110.64 43.82 109.24 49.68Q107.85 55.53 105 60.53Q102.55 64.82 99.04 67.88Q98.46 68.38 97.86 68.85Q96.37 70.01 94.7 70.76Q91.55 72.18 87.76 72.18Q84.33 72.18 81.54 70.84L81.53 70.84Q79.91 70.06 78.58 68.94Q77.62 68.13 76.8 67.13Q74.87 64.77 73.85 61.49Q72.83 58.22 72.83 54.35Q72.83 47.05 74.71 40.65Q76.59 34.26 79.92 28.84Q81.45 26.34 83.24 24.06Q85.35 21.36 87.81 18.95Q91.88 14.98 96.5 11.82Q97.07 11.44 97.64 11.06Q99.31 12.34 100.78 13.81Q104.62 17.65 107.15 22.82Q107.22 22.96 107.28 23.1ZM240.24 39.69Q241.16 34.05 241.69 31.25Q242.12 29 242.82 25.72Q243.52 22.45 244.81 19.44Q246.1 16.43 248.19 14.28Q249.11 13.34 250.22 12.81Q251.65 12.13 253.4 12.13Q256.27 12.13 258.07 13.52Q258.96 14.21 259.58 15.25Q261.46 18.36 261.46 22.66Q261.46 29.32 259.31 36.68Q257.16 44.04 253.46 52.36Q249.75 60.69 244.7 69.87Q239.65 79.06 233.75 89.16Q234.93 79.27 236.11 69.98Q237.29 60.69 238.31 53.01Q239.33 45.33 240.24 39.69ZM291.48 39.69Q292.4 34.05 292.93 31.25Q293.36 29 294.06 25.72Q294.76 22.45 296.05 19.44Q297.34 16.43 299.43 14.28Q300.35 13.34 301.46 12.81Q302.89 12.13 304.64 12.13Q307.51 12.13 309.31 13.52Q310.2 14.21 310.82 15.25Q312.7 18.36 312.7 22.66Q312.7 29.32 310.55 36.68Q308.4 44.04 304.7 52.36Q300.99 60.69 295.94 69.87Q290.89 79.06 284.99 89.16Q286.17 79.27 287.35 69.98Q288.53 60.69 289.55 53.01Q290.57 45.33 291.48 39.69ZM178.72 80.14Q180.61 79.49 182.72 79.49Q184.84 79.49 186.82 80.02Q188.05 80.35 189.22 80.88Q192.28 82.28 194.54 85.61Q196.79 88.94 198.24 94.47Q199.69 100.01 199.91 108.28Q199.91 112.57 199.59 116.23Q199.26 119.88 198.4 123.21L196.36 123.21Q190.67 123.21 185.73 121.33Q182.31 120.03 179.48 117.93Q178.22 117 177.08 115.9Q176.73 115.57 176.4 115.22Q173.17 111.88 171.23 107.31Q169.08 102.26 169.08 95.92Q169.08 92.27 170.15 89.26Q171.23 86.25 173.05 84.11Q174.2 82.76 175.6 81.77Q176.43 81.18 177.35 80.72Q178.02 80.39 178.72 80.14ZM351.76 84.78Q352.16 84.75 352.55 84.75Q355.02 84.75 356.9 85.72Q358.1 86.33 359.06 87.21Q359.61 87.71 360.07 88.3Q361.36 89.91 362.01 92.06Q362.65 94.2 362.65 96.57Q362.65 100.85 361.17 104.55Q360.98 105.02 360.77 105.48Q359.09 109.13 356.47 111.87Q356.16 112.2 355.83 112.52Q353.76 114.52 351.35 115.93Q350.19 116.6 348.96 117.14Q345.43 118.68 341.85 118.79Q341.56 118.8 341.27 118.8Q337.62 118.8 335.1 118.43Q332.57 118.05 331.18 117.52Q331.18 110.64 333.06 104.62Q334.94 98.61 337.94 94.2Q340.95 89.8 344.77 87.28Q348.2 85 351.76 84.78ZM413.31 84.78Q413.71 84.75 414.11 84.75Q416.58 84.75 418.46 85.72Q419.66 86.33 420.61 87.21Q421.16 87.71 421.63 88.3Q422.92 89.91 423.56 92.06Q424.2 94.2 424.2 96.57Q424.2 100.85 422.73 104.55Q422.54 105.02 422.32 105.48Q420.65 109.13 418.02 111.87Q417.71 112.2 417.38 112.52Q415.31 114.52 412.9 115.93Q411.74 116.6 410.51 117.14Q406.98 118.68 403.41 118.79Q403.12 118.8 402.83 118.8Q399.18 118.8 396.65 118.43Q394.13 118.05 392.73 117.52Q392.73 110.64 394.61 104.62Q396.49 98.61 399.5 94.2Q402.51 89.8 406.32 87.28Q409.75 85 413.31 84.78ZM238.17 133.22Q238.15 133.05 238.15 132.88Q238.15 131.69 238.74 131.05Q238.79 130.99 238.85 130.94Q239.33 130.5 239.88 130.36Q240.14 130.3 240.41 130.3Q241.91 130.3 243.47 132.45Q245.02 134.6 246.53 138.68Q243.99 138.51 241.91 137.44Q241.27 137.11 240.67 136.69Q238.36 135.07 238.17 133.22ZM289.41 133.22Q289.39 133.05 289.39 132.88Q289.39 131.69 289.98 131.05Q290.03 130.99 290.09 130.94Q290.57 130.5 291.12 130.36Q291.38 130.3 291.65 130.3Q293.15 130.3 294.71 132.45Q296.26 134.6 297.77 138.68Q295.23 138.51 293.15 137.44Q292.51 137.11 291.91 136.69Q289.6 135.07 289.41 133.22Z" fill="#FFFFFF" fill-opacity="1.000000" fill-rule="evenodd"/>
</svg>
